<?xml version="1.0" encoding="UTF-8"?>
<svg width="1200pt" height="1200pt" version="1.1" viewBox="0 0 1200 1200" xmlns="http://www.w3.org/2000/svg">
  <path fill="#FFFFFF" d="m342.68 212.63s-371.22 188.16-335.12 639.27c4.3555 54.469 30.758 77.004 63.07 100.12 32.941 23.605 199.86 170.53 534.96 88.066 110.84-25.766 170.12-72.191 170.12-72.191s44.762-128.41-112.68-431.39c-157.49-302.95-320.35-323.87-320.35-323.87z"/>
  <path fill="#FFFFFF" d="m804.46 962.3s45.098-129.3-113.5-434.34c-158.48-304.93-322.42-326.11-322.55-326.15 0.023438-0.21484 0.40625-2.7109 5.1953-33.742 5.1953-33.742 41.508-46.703 103.81-59.496 62.305-12.758 173.9 0 249.16 36.145 75.301 36.121 168.73 111.59 210.27 166.12 41.531 54.516 93.422 124.59 103.81 259.55 10.391 134.96-46.738 236.2-80.449 293.29-33.77 57.121-67.477 96.047-96.035 101.23-28.582 5.2305-59.711-2.6055-59.711-2.6055z"/>
  <path fill="#FFFFFF" d="m1002.8 376.37s28.094-58.98 101.09-95.473c73.055-36.527 73.055 0 73.055 0l22.441 64.586s-58.934-2.7969-112.34 11.242c-53.367 14.043-84.242 19.645-84.242 19.645z"/>
</svg>
